<?xml version="1.0" standalone="no"?>
<!DOCTYPE svg PUBLIC "-//W3C//DTD SVG 20010904//EN"
 "http://www.w3.org/TR/2001/REC-SVG-20010904/DTD/svg10.dtd">
<svg version="1.0" xmlns="http://www.w3.org/2000/svg"
 width="462.000000pt" height="462.000000pt" viewBox="0 0 462.000000 462.000000"
 preserveAspectRatio="xMidYMid meet">
<metadata>
Created by potrace 1.14, written by Peter Selinger 2001-2017
</metadata>
<g transform="translate(0.000000,462.000000) scale(0.100000,-0.100000)"
fill="#000000" stroke="none">
<path d="M2110 4613 c-23 -3 -93 -13 -205 -29 -146 -21 -419 -108 -585 -187
-158 -76 -368 -209 -492 -314 -49 -41 -280 -274 -305 -308 -13 -17 -37 -48
-54 -70 -209 -268 -383 -669 -434 -1000 -5 -27 -10 -57 -12 -65 -23 -108 -23
-509 1 -655 25 -159 27 -167 43 -225 8 -30 19 -71 23 -90 20 -80 86 -251 138
-360 48 -101 156 -284 203 -345 79 -101 149 -188 178 -218 237 -251 459 -409
791 -560 89 -41 321 -115 414 -133 11 -2 32 -6 46 -9 14 -3 54 -10 90 -15 36
-6 76 -13 90 -16 46 -10 414 -12 490 -3 195 22 246 32 432 85 124 36 264 88
287 107 8 7 17 11 20 11 12 -3 118 51 216 109 96 57 247 162 310 216 62 53
263 258 301 306 21 28 42 52 45 55 13 11 140 202 170 257 67 122 76 141 118
236 92 212 156 453 178 674 10 96 10 383 1 478 -25 253 -105 536 -221 775 -55
115 -204 354 -252 406 -5 7 -25 31 -44 55 -65 82 -286 294 -382 366 -321 241
-671 388 -1064 449 -100 15 -462 27 -535 17z"/>
</g>
</svg>
